<svg width="180" height="48" viewBox="0 0 180 48" fill="none" xmlns="http://www.w3.org/2000/svg">
<path d="M24.3519 24.2029C24.0654 26.3516 22.8061 27.4121 20.3131 27.4121C17.2194 27.4121 15.6714 25.9219 15.6714 22.9136C15.6714 19.9054 17.275 18.4729 20.1977 18.4729C22.5196 18.4729 23.7789 19.388 24.2386 21.1369H30.3106C29.8809 16.151 26.3574 13.3438 20.2832 13.3438C13.465 13.3438 9.51172 16.8395 9.51172 22.9136C9.51172 28.9878 13.3794 32.5391 20.2832 32.5391C26.6161 32.5391 30.1674 29.5886 30.3684 24.2029H24.3519Z" fill="white"/>
<path d="M41.5415 15.9219C35.1231 15.9219 31.5996 18.8724 31.5996 24.2025C31.5996 29.5327 35.1231 32.5388 41.5415 32.5388C47.9599 32.5388 51.4257 29.5883 51.4257 24.2025C51.4257 18.8168 47.9022 15.9219 41.5415 15.9219ZM41.5137 27.5528C38.7043 27.5528 37.3873 26.4646 37.3873 24.2025C37.3873 21.9405 38.7343 20.8779 41.5137 20.8779C44.2932 20.8779 45.6102 21.9661 45.6102 24.2025C45.6102 26.4389 44.2633 27.5528 41.5137 27.5528Z" fill="white"/>
<path d="M53.1445 11.3359V32.2503H58.8745V11.3359H53.1445Z" fill="white"/>
<path d="M74.6044 11.625V17.5559C73.3151 16.6387 71.6239 15.9225 69.4175 15.9225C63.5165 15.9225 60.5938 18.6442 60.5938 24.2031C60.5938 29.762 63.4865 32.5394 69.3897 32.5394C72.0537 32.5394 73.7727 31.5944 75.0897 30.3906L75.7504 32.2529H80.3343V11.625H74.6044ZM74.6044 25.8067C73.3707 27.0382 71.7672 27.5534 70.1636 27.5534C67.5852 27.5534 66.4092 26.4652 66.4092 24.2031C66.4092 21.9411 67.6408 20.8785 70.3625 20.8785C71.9104 20.8785 73.1997 21.3082 74.6044 22.6274V25.8067Z" fill="white"/>
<path d="M102.164 20.2145C102.164 15.917 99.1856 13.625 93.5989 13.625H82.7676V32.2474H88.7862V26.2587H92.9404L95.9486 32.2474H102.051L98.4694 25.6002C100.905 24.7407 102.164 23.0516 102.164 20.2145ZM92.996 21.9912H88.7862V18.4677H92.996C95.0891 18.4677 96.0042 18.9829 96.0042 20.2145C96.0042 21.446 95.1169 21.9912 92.996 21.9912Z" fill="white"/>
<path d="M122.133 22.6824C121.761 18.2716 118.667 15.9219 113.109 15.9219C106.921 15.9219 103.453 18.8724 103.453 24.2025C103.453 29.5327 106.891 32.5388 113.136 32.5388C118.266 32.5388 121.331 30.5333 122.076 26.6656H116.576C116.117 27.5251 115.029 28.098 113.337 28.098C111.161 28.098 109.842 27.2685 109.412 25.635H122.076C122.163 24.861 122.249 23.8861 122.133 22.6824ZM109.47 22.5969C109.957 21.1366 111.219 20.3626 113.194 20.3626C115.285 20.3626 116.604 21.1644 116.805 22.5969H109.47Z" fill="white"/>
<path d="M123.91 11.3359V32.2503H129.64V11.3359H123.91Z" fill="white"/>
<path d="M140.412 15.9219C134.767 15.9219 131.789 17.8996 131.789 21.6518H137.059C137.117 20.7346 138.062 20.3626 140.269 20.3626C142.475 20.3626 143.362 20.9634 143.362 22.3403V23.2276H136.858C133.249 23.2276 131.359 24.7755 131.359 27.7838C131.359 30.792 133.365 32.5388 137.431 32.5388C139.924 32.5388 142.189 31.737 143.593 30.2468L144.395 32.2523H149.092V20.9356C149.092 17.8996 145.654 15.9219 140.412 15.9219ZM143.362 26.4368C142.905 27.6961 141.07 28.5577 139.18 28.5577C137.748 28.5577 137.147 28.1836 137.147 27.2685C137.147 26.4368 137.69 26.0648 138.922 26.0648H143.362V26.4368Z" fill="white"/>
<path d="M165.914 16.2031H163.361L159.321 26.5449L155.511 16.2031H149.235L156.684 32.5635C156.428 32.7345 156.141 32.7922 155.739 32.7922H150.841V37.3762H157.056C159.436 37.3762 160.781 36.1725 161.841 33.7372L168.311 18.9056C166.962 18.7474 165.914 17.595 165.914 16.2031Z" fill="white"/>
<path d="M170.932 16.206C170.932 17.4718 169.904 18.5023 168.636 18.5023C168.587 18.5023 168.538 18.5002 168.491 18.498C168.452 18.4959 168.416 18.4916 168.379 18.4873C168.345 18.4852 168.311 18.4788 168.277 18.4745C168.243 18.4702 168.208 18.4638 168.174 18.4553C168.17 18.4553 168.166 18.4553 168.161 18.4553C168.106 18.4424 168.05 18.4296 167.997 18.4125C167.937 18.3954 167.879 18.3762 167.823 18.3548C167.766 18.3334 167.71 18.3099 167.657 18.2842C167.657 18.2842 167.652 18.2842 167.65 18.2842C167.599 18.2607 167.55 18.2351 167.503 18.2051C167.394 18.1431 167.289 18.0726 167.193 17.9935C167.156 17.9657 167.122 17.9357 167.088 17.9015C167.045 17.8652 167.005 17.8245 166.968 17.7839C166.945 17.7583 166.921 17.7326 166.898 17.7048C166.844 17.645 166.795 17.5829 166.75 17.5167C166.737 17.4974 166.725 17.4782 166.71 17.4568C166.682 17.414 166.654 17.3691 166.628 17.3221C166.6 17.2729 166.575 17.2238 166.551 17.1703C166.534 17.1297 166.517 17.0891 166.5 17.0484C166.489 17.0228 166.481 16.9971 166.47 16.9693C166.459 16.9351 166.449 16.9009 166.438 16.8667C166.429 16.8368 166.421 16.8068 166.412 16.7769C166.4 16.7299 166.391 16.6828 166.38 16.6337C166.372 16.5845 166.363 16.5353 166.359 16.484C166.357 16.4776 166.357 16.469 166.355 16.4605C166.346 16.3792 166.342 16.2958 166.342 16.2103C166.342 14.9446 167.37 13.9141 168.636 13.9141C169.902 13.9141 170.932 14.9446 170.932 16.2103V16.206Z" fill="#3069E1"/>
</svg>
