<?xml version="1.0" encoding="UTF-8"?>
<svg id="Layer_1" data-name="Layer 1" xmlns="http://www.w3.org/2000/svg" viewBox="0 0 841.89 218.52">
  <defs>
    <style>
      .cls-1 {
        fill: #4569b2;
      }

      .cls-2 {
        fill: #231f20;
      }
    </style>
  </defs>
  <g>
    <path class="cls-2" d="m113.9,111.07c-1.34,10.05-7.23,15.01-18.89,15.01-14.47,0-21.71-6.97-21.71-21.04s7.5-20.77,21.17-20.77c10.86,0,16.75,4.28,18.9,12.46h28.4c-2.01-23.32-18.49-36.45-46.9-36.45-31.89,0-50.38,16.35-50.38,44.76s18.09,45.02,50.38,45.02c29.62,0,46.23-13.8,47.17-38.99h-28.14Z"/>
    <path class="cls-2" d="m194.3,72.34c-30.02,0-46.5,13.8-46.5,38.73s16.48,38.99,46.5,38.99,46.23-13.8,46.23-38.99-16.48-38.73-46.23-38.73Zm-.13,54.4c-13.14,0-19.3-5.09-19.3-15.67s6.3-15.55,19.3-15.55,19.16,5.09,19.16,15.55-6.3,15.67-19.16,15.67Z"/>
    <path class="cls-2" d="m248.57,50.9v97.82h26.8V50.9h-26.8Z"/>
    <path class="cls-2" d="m348.94,52.24v27.74c-6.03-4.29-13.94-7.64-24.26-7.64-27.6,0-41.27,12.73-41.27,38.73s13.53,38.99,41.14,38.99c12.46,0,20.5-4.42,26.66-10.05l3.09,8.71h21.44V52.24h-26.8Zm0,66.33c-5.77,5.76-13.27,8.17-20.77,8.17-12.06,0-17.56-5.09-17.56-15.67s5.76-15.55,18.49-15.55c7.24,0,13.27,2.01,19.84,8.18v14.87Z"/>
    <path class="cls-2" d="m477.84,92.44c0-20.1-13.93-30.82-40.06-30.82h-50.66v87.1h28.15v-28.01h19.43l14.07,28.01h28.54l-16.75-31.09c11.39-4.02,17.28-11.92,17.28-25.19Zm-42.88,8.31h-19.69v-16.48h19.69c9.79,0,14.07,2.41,14.07,8.17s-4.15,8.31-14.07,8.31Z"/>
    <path class="cls-2" d="m571.24,103.96c-1.74-20.63-16.21-31.62-42.21-31.62-28.94,0-45.16,13.8-45.16,38.73s16.08,38.99,45.29,38.99c23.99,0,38.33-9.38,41.81-27.47h-25.72c-2.15,4.02-7.24,6.7-15.15,6.7-10.18,0-16.35-3.88-18.36-11.52h59.23c.41-3.62.81-8.18.27-13.81Zm-59.23-.4c2.28-6.83,8.18-10.45,17.42-10.45,9.78,0,15.95,3.75,16.89,10.45h-34.31Z"/>
    <path class="cls-2" d="m579.55,50.9v97.82h26.8V50.9h-26.8Z"/>
    <path class="cls-2" d="m656.73,72.34c-26.4,0-40.33,9.25-40.33,26.8h24.65c.27-4.29,4.69-6.03,15.01-6.03s14.47,2.81,14.47,9.25v4.15h-30.42c-16.88,0-25.72,7.24-25.72,21.31s9.38,22.24,28.4,22.24c11.66,0,22.25-3.75,28.82-10.72l3.75,9.38h21.97v-52.93c0-14.2-16.08-23.45-40.6-23.45Zm13.8,49.18c-2.14,5.89-10.72,9.92-19.56,9.92-6.7,0-9.51-1.75-9.51-6.03,0-3.89,2.54-5.63,8.3-5.63h20.77v1.74Z"/>
    <path class="cls-2" d="m776.01,73.68h-11.94l-18.9,48.37-17.82-48.37h-29.35l34.84,76.52c-1.2.8-2.54,1.07-4.42,1.07h-22.91v21.44h29.07c11.13,0,17.42-5.63,22.38-17.02l30.26-69.37c-6.31-.74-11.21-6.13-11.21-12.64Z"/>
  </g>
  <path class="cls-1" d="m799.48,73.68c0,5.92-4.81,10.74-10.74,10.74-.23,0-.46-.01-.68-.02-.18-.01-.35-.03-.52-.05-.16-.01-.32-.04-.48-.06s-.32-.05-.48-.09c-.02,0-.04,0-.06,0-.26-.06-.52-.12-.77-.2-.28-.08-.55-.17-.81-.27-.27-.1-.53-.21-.78-.33,0,0-.02,0-.03,0-.24-.11-.47-.23-.69-.37-.51-.29-1-.62-1.45-.99-.17-.13-.33-.27-.49-.43-.2-.17-.39-.36-.56-.55-.11-.12-.22-.24-.33-.37-.25-.28-.48-.57-.69-.88-.06-.09-.12-.18-.19-.28-.13-.2-.26-.41-.38-.63-.13-.23-.25-.46-.36-.71-.08-.19-.16-.38-.24-.57-.05-.12-.09-.24-.14-.37-.05-.16-.1-.32-.15-.48-.04-.14-.08-.28-.12-.42-.06-.22-.1-.44-.15-.67-.04-.23-.08-.46-.1-.7-.01-.03-.01-.07-.02-.11-.04-.38-.06-.77-.06-1.17,0-5.92,4.81-10.74,10.73-10.74s10.74,4.82,10.74,10.74Z"/>
</svg>